<?xml version="1.0" encoding="UTF-8"?>
<!DOCTYPE svg PUBLIC "-//W3C//DTD SVG 1.1//EN" "http://www.w3.org/Graphics/SVG/1.1/DTD/svg11.dtd">
<svg xmlns="http://www.w3.org/2000/svg" version="1.1" width="124px" height="47px" style="shape-rendering:geometricPrecision; text-rendering:geometricPrecision; image-rendering:optimizeQuality; fill-rule:evenodd; clip-rule:evenodd" xmlns:xlink="http://www.w3.org/1999/xlink">
<g><path style="opacity:0.854" fill="#21be72" d="M 31.5,-0.5 C 32.5,-0.5 33.5,-0.5 34.5,-0.5C 34.5,2.83333 34.5,6.16667 34.5,9.5C 36.8333,9.5 39.1667,9.5 41.5,9.5C 41.002,3.50076 43.6687,1.33409 49.5,3C 50.3333,3.83333 51.1667,4.66667 52,5.5C 52.5,4.33333 53.3333,3.5 54.5,3C 57.2713,3.34667 59.9379,3.18 62.5,2.5C 62.5,5.83333 62.5,9.16667 62.5,12.5C 59.4816,12.6646 56.4816,12.498 53.5,12C 51.443,8.7002 50.443,8.86687 50.5,12.5C 47.3148,12.9804 44.4815,12.3137 42,10.5C 38.8506,12.3625 35.3506,13.0291 31.5,12.5C 31.5,8.16667 31.5,3.83333 31.5,-0.5 Z M 56.5,5.5 C 58.6871,6.04851 59.3538,7.21517 58.5,9C 54.4467,9.46838 53.78,8.30171 56.5,5.5 Z"/></g>
<g><path style="opacity:0.846" fill="#21be73" d="M 63.5,2.5 C 68.4923,3.64911 73.4923,3.81577 78.5,3C 80.3398,5.82627 81.0065,8.99294 80.5,12.5C 79.5,12.5 78.5,12.5 77.5,12.5C 76.5,3.16667 75.5,3.16667 74.5,12.5C 73.5,12.5 72.5,12.5 71.5,12.5C 71.6641,9.8127 71.4974,7.14603 71,4.5C 70.6924,5.30806 70.1924,5.97473 69.5,6.5C 68.5745,5.35945 67.7412,5.35945 67,6.5C 66.5045,8.4727 66.3379,10.4727 66.5,12.5C 65.5,12.5 64.5,12.5 63.5,12.5C 63.5,9.16667 63.5,5.83333 63.5,2.5 Z"/></g>
<g><path style="opacity:0.834" fill="#21be72" d="M 101.5,-0.5 C 102.833,-0.5 104.167,-0.5 105.5,-0.5C 105.649,3.12328 106.816,3.45661 109,0.5C 112.793,2.23661 113.293,4.56994 110.5,7.5C 111.135,8.96632 111.969,10.2997 113,11.5C 113.499,7.51383 113.666,3.51383 113.5,-0.5C 114.5,-0.5 115.5,-0.5 116.5,-0.5C 116.5,0.5 116.5,1.5 116.5,2.5C 119.981,2.06746 122.314,3.40079 123.5,6.5C 123.5,8.5 123.5,10.5 123.5,12.5C 122.167,12.5 120.833,12.5 119.5,12.5C 118.5,3.16667 117.5,3.16667 116.5,12.5C 113.5,12.5 110.5,12.5 107.5,12.5C 106.833,3.16667 106.167,3.16667 105.5,12.5C 104.167,12.5 102.833,12.5 101.5,12.5C 101.736,0.738176 100.736,0.738176 98.5,12.5C 95.7615,13.0352 93.9282,12.0352 93,9.5C 92.5172,10.448 92.3505,11.448 92.5,12.5C 90.8561,12.7135 89.3561,12.3802 88,11.5C 86.8551,8.56823 86.0218,5.56823 85.5,2.5C 88.766,2.43258 90.266,4.09924 90,7.5C 91.0086,5.97506 91.5086,4.30839 91.5,2.5C 94.3455,2.80873 95.8455,4.4754 96,7.5C 97.0086,5.97506 97.5086,4.30839 97.5,2.5C 99.1992,2.66018 100.866,2.49351 102.5,2C 101.748,1.32924 101.414,0.495904 101.5,-0.5 Z"/></g>
<g><path style="opacity:0.954" fill="#21bf72" d="M -0.5,12.5 C 3.5,12.5 7.5,12.5 11.5,12.5C 11.5,16.1667 11.5,19.8333 11.5,23.5C 13.8333,23.5 16.1667,23.5 18.5,23.5C 18.5,19.8333 18.5,16.1667 18.5,12.5C 22.1667,12.5 25.8333,12.5 29.5,12.5C 29.5,23.5 29.5,34.5 29.5,45.5C 25.8333,45.5 22.1667,45.5 18.5,45.5C 18.5,41.8333 18.5,38.1667 18.5,34.5C 16.1667,34.5 13.8333,34.5 11.5,34.5C 11.5,38.1667 11.5,41.8333 11.5,45.5C 7.5,45.5 3.5,45.5 -0.5,45.5C -0.5,34.5 -0.5,23.5 -0.5,12.5 Z"/></g>
<g><path style="opacity:0.752" fill="#21bf72" d="M 30.5,28.5 C 32.1667,28.5 33.8333,28.5 35.5,28.5C 35.699,41.6368 36.3656,41.6368 37.5,28.5C 39.1667,28.5 40.8333,28.5 42.5,28.5C 42.6653,32.1817 42.4986,35.8484 42,39.5C 40.8393,41.6648 39.006,42.6648 36.5,42.5C 34.2753,42.6947 32.6087,41.8613 31.5,40C 30.6058,36.2238 30.2725,32.3905 30.5,28.5 Z"/></g>
<g><path style="opacity:0.79" fill="#21bf72" d="M 70.5,41.5 C 64.917,42.3765 59.5837,42.3765 54.5,41.5C 54.1667,33.5 53.8333,33.5 53.5,41.5C 50.1667,41.5 46.8333,41.5 43.5,41.5C 43.5,38.1667 43.5,34.8333 43.5,31.5C 48.2352,30.6127 52.9019,30.446 57.5,31C 59.0456,32.4396 59.879,34.2729 60,36.5C 61.1765,30.2486 64.5098,28.9152 70,32.5C 71.6995,31.5939 73.5328,31.2606 75.5,31.5C 75.8333,35.5 76.1667,35.5 76.5,31.5C 79.8333,31.5 83.1667,31.5 86.5,31.5C 86.8333,40.8333 87.1667,40.8333 87.5,31.5C 89.1667,31.5 90.8333,31.5 92.5,31.5C 92.5,34.8333 92.5,38.1667 92.5,41.5C 89.4752,41.8769 86.4752,42.0435 83.5,42C 82.0437,39.7342 81.2104,37.2342 81,34.5C 80.321,37.5499 79.4877,40.5499 78.5,43.5C 76.1489,45.2289 73.4822,45.8956 70.5,45.5C 70.5,44.1667 70.5,42.8333 70.5,41.5 Z M 70.5,41.5 C 70.3359,38.8127 70.5026,36.146 71,33.5C 71.2199,36.5162 72.3866,39.0162 74.5,41C 73.2068,41.49 71.8734,41.6567 70.5,41.5 Z"/></g>
<g><path style="opacity:0.794" fill="#21bf72" d="M 99.5,30.5 C 100.93,30.4208 102.264,30.7542 103.5,31.5C 104.487,34.7683 104.82,38.1016 104.5,41.5C 102.833,41.5 101.167,41.5 99.5,41.5C 99.1667,33.5 98.8333,33.5 98.5,41.5C 96.8333,41.5 95.1667,41.5 93.5,41.5C 93.5,38.1667 93.5,34.8333 93.5,31.5C 95.7354,31.7947 97.7354,31.4614 99.5,30.5 Z"/></g>
</svg>
